<svg width="91" height="60" viewBox="0 0 91 60" fill="none" xmlns="http://www.w3.org/2000/svg">
<path d="M0.884333 58.6811C1.27556 58.7808 1.67005 58.7819 2.06453 58.7114C3.12334 58.5229 3.33359 57.7057 3.16669 56.8767C3.10058 56.5472 2.85674 56.324 2.58906 56.1386C2.27586 55.923 1.94207 55.7366 1.64079 55.5057C1.45547 55.3638 1.29182 55.1784 1.16394 54.9834C1.02955 54.7785 1.16177 54.4578 1.38502 54.3526C1.65487 54.2247 1.96807 54.3266 2.06453 54.5889C2.11655 54.7298 2.13172 54.8848 2.16315 55.0354H3.17428C3.17428 54.9281 3.18078 54.8295 3.1732 54.733C3.12768 54.1782 2.89901 53.7252 2.2466 53.5929C1.92689 53.5279 1.58551 53.5301 1.25822 53.5583C0.713101 53.6049 0.242758 54.008 0.122463 54.4979C-0.0216751 55.0831 0.096453 55.5979 0.596058 55.9782C0.869161 56.1863 1.15852 56.3727 1.43596 56.5754C1.61369 56.7054 1.78817 56.8409 1.95073 56.9894C2.0862 57.1129 2.15231 57.2679 2.14256 57.4651C2.12738 57.7708 2.00601 57.9344 1.72207 57.968C1.39478 58.007 1.16611 57.8715 1.10433 57.5854C1.07182 57.4326 1.0664 57.2733 1.04581 57.0891H0V57.7523C0.0184236 57.7935 0.0433499 57.8336 0.0552711 57.8759C0.17665 58.3029 0.45192 58.5706 0.881082 58.6811H0.884333Z" fill="#2B2A29"/>
<path d="M4.86694 58.408C4.90379 58.4362 4.91896 58.4448 4.93088 58.4568C5.55512 59.0355 6.38093 58.7938 6.56517 57.9669C6.62369 57.7079 6.65512 57.4359 6.6497 57.1704C6.63995 56.7 6.62152 56.2253 6.54999 55.7615C6.49364 55.3963 6.24438 55.1438 5.86615 55.0777C5.49226 55.0116 5.14113 55.0582 4.89837 55.405C4.89079 55.4158 4.8702 55.418 4.83877 55.431C4.83335 55.3269 4.82901 55.2348 4.82468 55.1481H3.88833C3.88833 56.7011 3.88833 58.2411 3.88833 59.7822C3.88833 59.8548 3.87749 59.9274 3.87207 60H4.86694V58.408ZM4.87561 56.195C4.87778 56.0812 4.90813 55.9631 4.94931 55.8569C5.00566 55.7138 5.12488 55.6455 5.28419 55.6455C5.44024 55.6455 5.54428 55.7279 5.59305 55.8623C5.6364 55.9815 5.66566 56.1105 5.67325 56.2362C5.68625 56.4443 5.6765 56.6534 5.6765 56.8615C5.683 56.8615 5.6895 56.8615 5.69492 56.8615C5.67867 57.1422 5.66458 57.424 5.64399 57.7047C5.63965 57.7643 5.61906 57.825 5.59522 57.8802C5.53561 58.0179 5.44566 58.1186 5.28093 58.1197C5.10862 58.1197 5.0035 58.0233 4.95148 57.8748C4.90921 57.7545 4.87561 57.6255 4.87345 57.4998C4.86478 57.0642 4.86694 56.6285 4.87561 56.1939V56.195Z" fill="#2B2A29"/>
<path d="M90.8836 57.8997C90.8597 57.9095 90.8186 57.9149 90.8142 57.9301C90.6733 58.4124 90.3244 58.6584 89.854 58.7212C89.4465 58.7754 89.0336 58.7949 88.6392 58.6009C88.3184 58.4427 88.1807 58.1696 88.093 57.8499C87.9618 57.372 87.9932 56.8821 88.0182 56.3998C88.0409 55.9501 88.1536 55.5025 88.5871 55.2489C88.7367 55.1611 88.9188 55.1113 89.0922 55.0874C89.5571 55.0246 90.0285 55.0181 90.4198 55.3259C90.5791 55.4516 90.6809 55.6499 90.8066 55.8168C90.837 55.8569 90.8565 55.9035 90.8814 55.9468V56.389H89.892C89.892 56.285 89.8931 56.2059 89.892 56.1278C89.8866 55.9024 89.7424 55.7182 89.5495 55.6878C89.3143 55.651 89.1529 55.7485 89.0802 55.9945C89.038 56.1387 89.0109 56.2915 89.0055 56.441C88.9946 56.7531 88.9881 57.0663 89.0076 57.3785C89.0185 57.5562 89.0705 57.7372 89.1323 57.9062C89.1886 58.0623 89.3197 58.1403 89.4953 58.1317C89.6698 58.123 89.7879 58.033 89.8399 57.8759C89.8735 57.7751 89.8605 57.6581 89.8898 57.554C89.9093 57.4847 89.9635 57.373 90.0047 57.372C90.2962 57.3633 90.5888 57.3774 90.8814 57.385V57.9008L90.8836 57.8997Z" fill="#2B2A29"/>
<path d="M30.5376 24.1726C30.7284 24.3698 30.9354 24.5508 31.1391 24.734C31.436 24.9995 31.7189 25.2845 32.0408 25.5164C32.6184 25.9337 33.2058 26.3422 33.817 26.7085C34.3058 27.0012 34.8282 27.245 35.3527 27.4715C35.8263 27.6763 36.3172 27.8519 36.8125 27.9993C37.2839 28.1402 37.7673 28.2464 38.2506 28.3331C38.6733 28.4089 39.1035 28.4436 39.5327 28.4837C39.9066 28.5195 40.2815 28.5585 40.6565 28.5574C41.0868 28.5574 41.517 28.5195 41.9473 28.4859C42.3439 28.4555 42.7449 28.4393 43.134 28.3656C43.8872 28.2225 44.6339 28.0426 45.3838 27.8801C45.4261 27.8714 45.4727 27.8833 45.5171 27.8855C45.5171 27.8681 45.5171 27.8508 45.5171 27.8335C45.1671 27.7446 44.8138 27.6698 44.4691 27.5658C41.7999 26.7627 39.3604 25.5273 37.2341 23.7055C35.8718 22.5383 34.7165 21.1912 33.7574 19.6761C33.7152 19.61 33.674 19.545 33.597 19.4236C34.0251 19.4778 34.4131 19.5103 34.7935 19.5786C37.8225 20.1194 40.4105 21.5012 42.5737 23.6849C42.6907 23.803 42.8023 23.9244 42.9161 24.0447C42.9248 24.0371 42.9335 24.0295 42.9421 24.023C42.6148 23.3999 42.268 22.7865 41.9668 22.1503C41.7446 21.6822 41.582 21.1847 41.3935 20.7003C41.3317 20.7144 41.2656 20.749 41.2092 20.7382C39.4395 20.3957 37.7163 19.8994 36.0571 19.1895C34.9062 18.6964 33.8008 18.1177 32.7344 17.4621C32.6769 17.4263 32.5891 17.4404 32.5155 17.4306C32.8503 18.0798 33.1852 18.73 33.5439 19.4247C32.5295 19.3554 31.5336 19.3673 30.5387 19.4865C29.5362 19.6068 28.5544 19.8138 27.5725 20.0977C27.6982 20.3231 27.8185 20.5431 27.9431 20.7621C28.6552 22.0149 29.5384 23.1365 30.5387 24.1704L30.5376 24.1726Z" fill="#514096"/>
<path d="M62.9436 20.0002C62.1774 19.842 61.4134 19.6751 60.6439 19.5374C60.2625 19.4692 59.8712 19.4377 59.4832 19.4258C58.8915 19.4074 58.2976 19.4226 57.7048 19.4204C57.5899 19.4204 57.474 19.4063 57.3298 19.3966C57.3949 19.2698 57.4404 19.1809 57.487 19.0909C57.2247 19.1896 56.9484 19.2622 56.7555 19.4908C56.9115 19.4789 57.0676 19.467 57.2724 19.4507C57.0871 19.739 56.9354 20.0013 56.7576 20.2462C56.2754 20.9116 55.7963 21.5814 55.2079 22.1623C54.7343 22.6294 54.291 23.13 53.7969 23.5733C53.0534 24.2409 52.2449 24.8283 51.3942 25.3528C50.4524 25.9326 49.4716 26.4365 48.4421 26.8473C47.5003 27.2233 46.5444 27.5506 45.5637 27.8096C45.5463 27.814 45.5311 27.8259 45.5149 27.8346C45.5149 27.8519 45.5149 27.8693 45.5149 27.8866C45.7956 27.957 46.0752 28.0361 46.358 28.0968C46.823 28.1965 47.2879 28.3006 47.7572 28.3743C48.1419 28.4339 48.5331 28.4566 48.9222 28.4859C49.3405 28.5173 49.7588 28.5466 50.1772 28.5607C50.3701 28.5672 50.5651 28.5347 50.7591 28.5249C51.0322 28.5108 51.3086 28.5238 51.5773 28.4848C52.1496 28.4014 52.7218 28.3125 53.2864 28.1879C54.446 27.9321 55.5514 27.5246 56.6005 26.9643C58.0516 26.1905 59.3359 25.2032 60.4749 24.0198C61.2194 23.2471 61.8924 22.4191 62.4776 21.5218C62.7735 21.0688 63.0379 20.5963 63.3294 20.1107C63.1723 20.0663 63.0585 20.0262 62.9415 20.0024L62.9436 20.0002Z" fill="#524095"/>
<path d="M68.4404 44.5209C68.3992 44.768 68.1727 44.742 68.0199 44.7691C67.5549 44.8515 67.1496 45.0249 66.8245 45.3771C66.4279 45.8073 66.029 46.2354 65.6205 46.6537C65.5078 46.7686 65.601 46.8347 65.6508 46.9019C66.054 47.4373 66.4614 47.9694 66.8711 48.5004C67.1475 48.8581 67.4292 49.2114 67.7999 49.4823C68.1033 49.7045 68.436 49.8551 68.8013 49.944C68.9118 49.9711 69.0245 50.009 69.121 50.0675C69.277 50.1607 69.2813 50.2875 69.1231 50.3731C68.9714 50.4566 68.8023 50.5303 68.6333 50.5574C67.7273 50.6983 66.9177 50.4707 66.171 49.9364C65.7592 49.6416 65.5099 49.2233 65.2076 48.844C64.9659 48.5405 64.7437 48.2208 64.501 47.8925C64.2929 48.1135 64.0902 48.3194 63.8984 48.534C63.6578 48.8028 63.4248 49.0781 63.1875 49.3512C63.0563 49.5018 63.0726 49.5668 63.2731 49.6243C63.4129 49.6644 63.557 49.685 63.6968 49.7218C63.7586 49.7381 63.816 49.7706 63.8832 49.7988C63.803 49.983 63.6383 49.9591 63.5169 49.97C63.3381 49.9862 63.155 49.9461 62.974 49.9429C62.5622 49.9364 62.1514 49.9331 61.7396 49.9386C61.4535 49.9429 61.1674 49.97 60.8813 49.9743C60.7848 49.9754 60.6873 49.9364 60.5908 49.9169C60.5854 49.8941 60.58 49.8724 60.5746 49.8497C60.6569 49.8063 60.736 49.7522 60.8238 49.7218C61.0969 49.6286 61.4004 49.5896 61.6421 49.4444C61.9368 49.2677 62.1969 49.0206 62.4419 48.7746C62.9328 48.2804 63.3988 47.7602 63.8865 47.2628C64.0068 47.1403 63.9092 47.0753 63.8594 47.0038C63.2644 46.1574 62.6521 45.3229 62.0701 44.4678C61.3299 43.3787 60.6158 42.2722 59.8831 41.1787C59.7195 40.9337 59.5472 40.6856 59.3348 40.4862C59.2004 40.3605 58.9912 40.2933 58.8037 40.2521C58.5599 40.199 58.3052 40.1903 58.0538 40.1784C57.8229 40.1675 57.7644 40.2282 57.7623 40.4667C57.7601 40.8167 57.7633 41.1667 57.7677 41.5168C57.7731 41.985 57.7763 42.4521 57.7926 42.9192C57.8089 43.3711 57.8295 43.823 57.8674 44.2728C57.9021 44.677 58.199 44.9468 58.6943 45.0801C58.8623 45.1257 59.0281 45.1907 59.183 45.2687C59.2394 45.2969 59.2968 45.3923 59.2914 45.4519C59.286 45.5115 59.2145 45.5841 59.1538 45.6155C59.0823 45.6524 58.9912 45.6675 58.9099 45.6654C58.3204 45.6459 57.7308 45.6058 57.1413 45.5982C56.6395 45.5917 56.1377 45.6264 55.6349 45.6264C55.3759 45.6264 55.1147 45.6025 54.8589 45.5635C54.7961 45.5537 54.7213 45.4475 54.7061 45.3749C54.6964 45.3316 54.7798 45.2405 54.8405 45.2145C55.08 45.1127 55.326 45.0238 55.572 44.936C56.0142 44.7778 56.2461 44.5079 56.2483 43.9585C56.2504 43.2269 56.297 42.4954 56.3155 41.7639C56.3361 40.9251 56.348 40.0863 56.3599 39.2474C56.3642 38.9277 56.3599 38.6091 56.3545 38.2894C56.3447 37.727 56.3415 37.1645 56.3166 36.602C56.297 36.162 56.2559 35.7231 56.2082 35.2853C56.1833 35.049 56.0055 34.9179 55.8007 34.8431C55.6056 34.7716 55.3975 34.7337 55.1981 34.6751C55.0984 34.6459 54.989 34.6177 54.9088 34.557C54.8535 34.5158 54.8134 34.4161 54.8188 34.3457C54.8232 34.2915 54.9001 34.2156 54.9586 34.1983C55.0681 34.1669 55.1884 34.1647 55.3043 34.1625C56.115 34.1506 56.9256 34.1419 57.7352 34.13C58.4515 34.1192 59.1679 34.0802 59.8831 34.1008C60.5691 34.1213 61.2389 34.2655 61.822 34.6589C62.4744 35.0978 62.8385 35.734 62.9837 36.4926C63.2503 37.8895 62.4343 39.1098 61.3906 39.6224C61.3744 39.63 61.3592 39.643 61.3429 39.6495C60.8889 39.837 60.9094 40.0191 61.1435 40.3756C61.9357 41.5818 62.728 42.788 63.5364 43.9823C63.9699 44.6228 64.4414 45.2373 64.8911 45.8669C64.9843 45.9981 65.058 46.0013 65.1588 45.881C65.3885 45.6079 65.6248 45.3402 65.8546 45.0671C65.9564 44.9458 65.9272 44.8656 65.77 44.8125C65.6692 44.7789 65.5652 44.7496 65.4687 44.7063C65.4341 44.69 65.4146 44.6391 65.3885 44.6044C65.42 44.5805 65.4492 44.5437 65.485 44.5361C65.5435 44.5231 65.6075 44.5264 65.6682 44.5264C66.2946 44.5264 66.921 44.5264 67.5474 44.5264C67.8465 44.5264 68.1456 44.5285 68.4458 44.5296L68.4425 44.5264L68.4404 44.5209ZM57.7894 37.7714H57.7904C57.7904 38.2937 57.7861 38.815 57.7926 39.3374C57.7959 39.5899 57.9487 39.7395 58.1947 39.7275C58.4439 39.7145 58.6943 39.6918 58.9414 39.6517C59.4193 39.5747 59.9178 39.5151 60.321 39.2334C61.175 38.6384 61.59 37.7887 61.4199 36.7635C61.2497 35.7361 60.6569 34.9981 59.5981 34.7174C59.1744 34.6047 58.7474 34.6242 58.3204 34.6795C58.0191 34.7185 57.8392 34.9157 57.8284 35.217C57.8099 35.7253 57.7991 36.2325 57.7904 36.7408C57.785 37.0843 57.7904 37.4278 57.7904 37.7725L57.7894 37.7714Z" fill="#524096"/>
<path d="M54.1276 45.2709C54.0311 45.1972 53.9087 45.1452 53.7895 45.1137C53.4102 45.0119 53.0319 44.8894 52.7469 44.6163C52.3687 44.2532 52.0002 43.8728 51.6773 43.461C50.9002 42.4683 50.2066 41.4171 49.578 40.3236C49.3981 40.0093 49.3721 39.8424 49.7558 39.6669C49.7775 39.6571 49.8013 39.6484 49.8208 39.6354C50.0755 39.4588 50.3529 39.307 50.5762 39.0968C50.7908 38.8941 50.9717 38.6449 51.1267 38.3913C51.2535 38.1843 51.337 37.9459 51.4096 37.7129C51.5602 37.2328 51.5244 36.7375 51.3976 36.2671C51.1235 35.2549 50.4765 34.5765 49.4588 34.2785C48.8248 34.0932 48.1724 34.0563 47.5168 34.0661C46.9045 34.0758 46.2921 34.1116 45.6798 34.1268C45.0166 34.143 44.3533 34.1474 43.6901 34.1604C43.599 34.1625 43.5026 34.1679 43.4202 34.2005C43.3617 34.2232 43.2902 34.2904 43.2826 34.3457C43.275 34.4031 43.3227 34.4898 43.3725 34.5277C43.4484 34.5852 43.5449 34.6199 43.6381 34.648C43.8136 34.7022 43.9924 34.7477 44.1702 34.7933C44.5029 34.8767 44.6817 35.0891 44.7077 35.4305C44.7316 35.747 44.7619 36.0634 44.7771 36.3799C44.7955 36.7895 44.8096 37.1992 44.8117 37.6088C44.8183 38.8432 44.828 40.0776 44.8172 41.3131C44.8117 42.0034 44.7684 42.6937 44.7424 43.3841C44.7326 43.642 44.7261 43.8989 44.712 44.1557C44.6915 44.5188 44.5029 44.7637 44.1669 44.8926C43.9274 44.9848 43.6803 45.0606 43.4408 45.1549C43.3281 45.1993 43.1439 45.2319 43.2035 45.3966C43.2392 45.4952 43.3931 45.5559 43.5004 45.6231C43.5319 45.6426 43.585 45.6296 43.6272 45.6263C43.9979 45.6036 44.3696 45.5656 44.7402 45.5602C45.2095 45.5548 45.6798 45.5689 46.1491 45.5884C46.3648 45.5971 46.5804 45.6664 46.7939 45.6556C47.0703 45.6404 47.3585 45.7553 47.6251 45.5667C47.8159 45.4313 47.8354 45.3457 47.6251 45.2373C47.481 45.1625 47.3195 45.1181 47.1624 45.0769C46.6086 44.9327 46.3929 44.7236 46.3279 44.1828C46.2791 43.7786 46.2672 43.3678 46.2542 42.9603C46.2423 42.5919 46.252 42.2234 46.252 41.8549C46.2423 41.8549 46.2336 41.8549 46.2239 41.8549C46.2239 41.3878 46.2206 40.9218 46.225 40.4547C46.2271 40.2261 46.2856 40.1654 46.5056 40.1751C46.7571 40.187 47.0074 40.2131 47.2567 40.2412C47.4734 40.2662 47.6858 40.3193 47.8256 40.5035C48.0619 40.8167 48.296 41.1321 48.5149 41.4572C49.1055 42.3361 49.6843 43.2226 50.276 44.0993C50.458 44.3681 50.6434 44.6445 50.8742 44.8699C51.2914 45.2752 51.8041 45.5375 52.3687 45.6762C52.7003 45.7575 53.0384 45.7889 53.3863 45.7412C53.6334 45.7076 53.8751 45.6794 54.0962 45.5548C54.2381 45.4746 54.2587 45.3738 54.1265 45.273L54.1276 45.2709ZM48.9105 39.151C48.568 39.4338 48.1378 39.514 47.7162 39.5931C47.3748 39.6571 47.0291 39.6994 46.6823 39.7254C46.4027 39.747 46.2585 39.5942 46.2564 39.3049C46.252 38.7771 46.2553 38.2493 46.2553 37.7215H46.2542C46.2542 37.3531 46.2499 36.9846 46.2553 36.6172C46.2629 36.1653 46.2694 35.7123 46.2965 35.2604C46.3062 35.101 46.3691 34.9439 46.4157 34.7878C46.4233 34.7607 46.4688 34.7347 46.5013 34.7282C47.3672 34.5494 48.2093 34.5819 48.9408 35.1357C49.5249 35.5779 49.8371 36.1967 49.9032 36.9271C49.9866 37.8494 49.6095 38.5777 48.9126 39.1521L48.9105 39.151Z" fill="#524096"/>
<path d="M22.6134 45.6242C22.6427 45.6307 22.6741 45.6307 22.7055 45.6307C22.9938 45.6242 23.2821 45.6123 23.5704 45.6112C24.3062 45.609 25.0421 45.6133 25.7779 45.6112C26.1204 45.6112 26.4639 45.6112 26.8053 45.5873C26.8801 45.5819 27.0112 45.4768 27.0069 45.4269C27.0004 45.3446 26.9159 45.2557 26.8433 45.1939C26.7858 45.1463 26.698 45.1343 26.6222 45.1083C26.4314 45.0422 26.2374 44.9848 26.0489 44.9111C25.7541 44.7973 25.5807 44.5751 25.5439 44.2641C25.5113 43.978 25.4842 43.6897 25.4832 43.4014C25.4756 41.0064 25.4723 38.6113 25.4723 36.2162C25.4723 35.8553 25.4788 35.4945 25.5092 35.1357C25.5471 34.6892 25.7411 34.5299 26.1973 34.531C26.8671 34.5321 27.4697 34.7412 27.9736 35.1802C29.0519 36.1187 29.2611 37.3184 28.9045 38.6319C28.6412 39.5986 28.018 40.2456 26.9798 40.3962C26.7696 40.4266 26.555 40.4146 26.3426 40.4341C26.2851 40.4396 26.1952 40.4786 26.1833 40.5198C26.167 40.5772 26.1898 40.6801 26.2331 40.7116C26.3404 40.7885 26.4639 40.8579 26.5907 40.8893C27.0156 40.9977 27.4447 41.0172 27.8793 40.9305C29.2817 40.6487 30.7675 39.4544 30.6678 37.3617C30.6038 36.0298 29.9829 35.0404 28.7691 34.4573C27.9411 34.0596 27.0492 33.9718 26.1464 34.0021C25.2534 34.0325 24.3626 34.0953 23.4988 34.143C23.2246 34.143 22.9776 34.1311 22.7337 34.1474C22.5896 34.1571 22.4032 34.1896 22.3945 34.3684C22.3858 34.5418 22.5733 34.5668 22.7044 34.6014C22.9179 34.6567 23.139 34.6806 23.3525 34.7358C23.7763 34.8464 23.9052 35.0154 23.9182 35.4543C23.928 35.7914 23.9367 36.1295 23.9399 36.4676C23.9518 38.0337 23.9735 39.5997 23.967 41.1657C23.9638 42.0543 23.9128 42.9419 23.8857 43.8306C23.8662 44.4667 23.6191 44.8027 23.0155 45.0021C22.8583 45.0541 22.6958 45.0888 22.5419 45.1495C22.4248 45.1961 22.2818 45.2535 22.3035 45.4139C22.3262 45.5787 22.4801 45.5971 22.6123 45.6253L22.6134 45.6242Z" fill="#514096"/>
<path d="M30.4293 45.6047C30.5539 45.6307 30.6851 45.6339 30.813 45.6285C31.4545 45.6058 32.095 45.5667 32.7366 45.5548C33.1289 45.5483 33.5212 45.5884 33.9146 45.5928C34.1043 45.5949 34.3698 45.6339 34.411 45.3955C34.4522 45.156 34.1758 45.1441 34.0122 45.0704C33.8507 44.9978 33.6762 44.9512 33.518 44.871C33.1332 44.6748 33.0314 44.4537 33.117 44.0267C33.3088 43.0731 33.6339 42.1616 33.9807 41.2567C34.0317 41.1234 34.1216 41.0454 34.269 41.04C34.7459 41.0215 35.2216 40.9944 35.6985 40.9847C36.1959 40.9738 36.6933 40.9771 37.1908 40.9793C37.3067 40.9793 37.426 40.9901 37.5354 41.0226C37.6026 41.0421 37.686 41.1028 37.7066 41.1635C38.0318 42.1139 38.3742 43.06 38.656 44.0235C38.8619 44.729 38.7145 44.9132 38.0014 45.0823C37.8844 45.1105 37.763 45.1517 37.6644 45.2178C37.5213 45.3121 37.5376 45.4464 37.6947 45.5104C37.7988 45.5527 37.9169 45.583 38.0285 45.5841C38.6105 45.5917 39.1925 45.5873 39.7744 45.5873C39.7744 45.5765 39.7744 45.5667 39.7744 45.5559C40.3759 45.5808 40.9763 45.609 41.5778 45.6274C41.7176 45.6318 41.8617 45.6177 41.995 45.5808C42.0622 45.5624 42.1521 45.479 42.1576 45.4172C42.163 45.3554 42.0936 45.2568 42.0297 45.2232C41.9018 45.1549 41.7598 45.104 41.6179 45.0715C41.1594 44.9642 40.7888 44.7377 40.5601 44.315C40.4496 44.1102 40.3315 43.9064 40.2469 43.6908C39.7376 42.3892 39.2228 41.0898 38.7384 39.7796C38.0513 37.9231 37.3902 36.0569 36.7107 34.1972C36.6619 34.0639 36.5481 33.9544 36.4647 33.8331C36.3509 33.9371 36.2024 34.0227 36.1287 34.1506C35.9087 34.5342 35.6909 34.9114 35.5337 35.3373C34.8521 37.1894 34.1162 39.0209 33.3912 40.8568C32.9837 41.8885 32.561 42.9137 32.1395 43.94C31.9108 44.4971 31.5044 44.8612 30.9181 45.0205C30.8065 45.0509 30.6927 45.0856 30.5908 45.1397C30.4965 45.1907 30.4011 45.2568 30.3339 45.3392C30.2397 45.4551 30.2819 45.57 30.4282 45.6014L30.4293 45.6047ZM34.4717 39.915C34.7524 39.1055 35.0406 38.297 35.33 37.4907C35.4665 37.1103 35.6096 36.7321 35.7516 36.3539C35.7765 36.2856 35.8079 36.2206 35.8599 36.0959C35.9261 36.2173 35.977 36.2867 36.0041 36.3625C36.4376 37.5666 36.8689 38.7717 37.3002 39.9768C37.3512 40.1199 37.3024 40.1816 37.1518 40.1849C36.9188 40.1881 36.6858 40.2066 36.4528 40.2098C35.8697 40.2196 35.2866 40.2228 34.7036 40.2326C34.3861 40.238 34.3655 40.2228 34.4717 39.9161V39.915Z" fill="#524096"/>
<path d="M68.4437 44.5242C68.2908 44.3898 68.1315 44.263 67.9874 44.1188C67.4878 43.6192 67.0836 43.0503 66.7844 42.4087C66.52 41.8419 66.3314 41.2545 66.2708 40.6292C66.248 40.3951 66.1992 40.1632 66.1949 39.9291C66.1808 39.2702 66.2827 38.6286 66.4962 38.0022C66.7335 37.3043 67.0857 36.6724 67.5344 36.0916C67.9755 35.5204 68.552 35.1108 69.1708 34.7586C70.0595 34.2525 71.024 33.9837 72.0363 33.8807C72.9152 33.7908 73.7898 33.8461 74.6524 34.0379C75.2376 34.1679 75.8196 34.3164 76.4016 34.4616C76.5858 34.5071 76.64 34.6675 76.6541 34.8258C76.6888 35.2322 76.7072 35.6396 76.7321 36.0471C76.7451 36.266 76.757 36.485 76.769 36.7039C76.7711 36.7407 76.783 36.7862 76.7657 36.8133C76.7018 36.9163 76.6476 37.068 76.5555 37.0994C76.3994 37.1525 76.3658 36.9813 76.3203 36.8675C76.1924 36.5467 76.0754 36.2205 75.9356 35.9041C75.76 35.5074 75.4295 35.2603 75.0686 35.0458C74.5137 34.7152 73.9231 34.5126 73.2739 34.4551C72.6117 34.3955 71.9626 34.415 71.3221 34.6014C70.7596 34.7651 70.2513 35.0327 69.8016 35.4045C68.8316 36.2032 68.2648 37.2533 68.0871 38.4736C67.8508 40.0917 68.0654 41.6522 69.0256 43.0329C69.8146 44.1665 70.9168 44.8374 72.2638 45.1115C73.0268 45.2676 73.7822 45.221 74.5115 44.949C75.4045 44.6152 76.084 44.018 76.5598 43.1912C76.6595 43.0188 76.7592 42.8454 76.8752 42.685C76.9207 42.6211 77.0117 42.5897 77.0822 42.5442C77.1255 42.6254 77.1981 42.7035 77.2079 42.7891C77.2675 43.3353 77.0193 43.8067 76.8242 44.2901C76.7744 44.4125 76.7115 44.5296 76.6584 44.6499C76.4146 45.2037 75.9431 45.4399 75.3872 45.545C74.8767 45.6415 74.3652 45.7401 73.8504 45.803C73.4115 45.8561 72.965 45.8886 72.5239 45.8788C71.89 45.8658 71.2592 45.7824 70.6567 45.5711C70.2167 45.4172 69.7767 45.2568 69.3551 45.0595C69.0625 44.923 68.8002 44.7192 68.5228 44.548C68.4989 44.5339 68.4697 44.5296 68.4426 44.5209L68.4458 44.5242H68.4437Z" fill="#534196"/>
<path d="M14.5991 45.4984C14.7227 45.5353 14.8452 45.5732 14.9698 45.6068C16.1684 45.9265 17.3562 45.9482 18.5277 45.4778C19.6992 45.0086 20.511 43.8663 20.5218 42.685C20.4925 42.4672 20.4774 42.245 20.4318 42.0305C20.2649 41.2361 19.8011 40.6184 19.1855 40.1274C18.5819 39.6462 17.9316 39.2247 17.3107 38.7641C16.9368 38.4866 16.5531 38.2135 16.2215 37.8895C15.6699 37.352 15.4824 36.6887 15.6547 35.9236C16.0123 34.3348 17.7788 33.9859 18.8138 34.6979C19.2766 35.0165 19.5453 35.4814 19.7523 35.9886C19.7913 36.084 19.8282 36.1956 19.9019 36.2552C19.9886 36.3256 20.1143 36.3495 20.2227 36.3928C20.2519 36.2986 20.3148 36.1999 20.3061 36.1089C20.253 35.5486 20.1934 34.9894 20.1143 34.4324C20.0948 34.2925 20.007 34.1658 19.8325 34.1289C19.0501 33.9653 18.2709 33.8038 17.4591 33.858C16.9931 33.8894 16.5455 33.9609 16.1153 34.1322C14.7682 34.6686 14.0183 35.9984 14.2708 37.4148C14.4127 38.2124 14.8549 38.8464 15.4575 39.3558C15.9571 39.7784 16.5 40.1513 17.0354 40.5306C17.5328 40.8817 18.0205 41.2415 18.4313 41.6967C18.8994 42.2147 19.0707 42.8173 18.9699 43.5011C18.7791 44.7832 17.4992 45.4573 16.4252 45.1928C15.5366 44.9739 14.8462 44.5144 14.4691 43.6463C14.377 43.4339 14.2502 43.2356 14.1331 43.034C14.0963 42.9712 14.0475 42.9105 13.9912 42.8682C13.9576 42.8433 13.885 42.8335 13.8492 42.853C13.7235 42.9224 13.6184 43.1749 13.6444 43.3114C13.7278 43.7569 13.8156 44.2012 13.8925 44.6477C13.9652 45.0714 14.1776 45.3706 14.6024 45.4952L14.5991 45.4984Z" fill="#524096"/>
<path d="M30.6168 10.5402C30.8054 10.7374 30.9928 10.9347 31.1814 11.1298C31.4274 11.3844 31.6702 11.6413 31.9216 11.8906C32.1394 12.1062 32.3638 12.3143 32.5903 12.5202C33.3619 13.2203 34.1964 13.8391 35.0818 14.3842C35.6183 14.7148 36.1634 15.0345 36.7258 15.3163C37.9114 15.9069 39.1469 16.374 40.4279 16.7121C40.4745 16.724 40.5243 16.7262 40.572 16.7327C40.5374 16.3512 40.4929 15.9698 40.4712 15.5883C40.4528 15.2458 40.4604 14.9023 40.4561 14.5587C39.9315 14.3745 39.3918 14.2249 38.8857 13.9984C38.1434 13.6657 37.4032 13.3157 36.7031 12.9028C36.0366 12.5104 35.4026 12.0542 34.7914 11.5784C34.2668 11.1699 33.7726 10.7169 33.3055 10.2433C32.5393 9.4673 31.8837 8.59814 31.2985 7.67805C31.2573 7.61302 31.2432 7.53174 31.2161 7.45805C30.9538 7.3746 30.6916 7.29223 30.4369 7.21204C30.4369 7.33667 30.439 7.43095 30.4369 7.52415C30.4293 7.8341 30.4065 8.14514 30.4141 8.45509C30.4228 8.82356 30.4477 9.19312 30.4824 9.56051C30.5138 9.88888 30.5702 10.2151 30.6157 10.5424L30.6168 10.5402Z" fill="#3C56A7"/>
<path d="M33.3076 10.2422C33.7747 10.7147 34.2689 11.1688 34.7934 11.5773C35.4046 12.0531 36.0386 12.5094 36.7051 12.9017C37.4052 13.3135 38.1454 13.6646 38.8878 13.9973C39.3928 14.2238 39.9336 14.3734 40.4581 14.5576V13.4262C40.4776 13.4164 40.4971 13.4067 40.5166 13.3969C40.7561 13.6625 40.9956 13.9269 41.2351 14.1924C41.3359 14.1967 41.4378 14.1902 41.5353 14.2087C42.1693 14.3333 42.799 14.4818 43.4362 14.5847C43.886 14.6573 44.3466 14.6801 44.8028 14.7018C45.3469 14.7278 45.8942 14.7581 46.4371 14.7343C47.0386 14.7083 47.639 14.6324 48.2372 14.562C48.6599 14.5132 49.0804 14.4373 49.5019 14.3745C49.6114 14.2563 49.7241 14.1415 49.8292 14.0201C49.9679 13.8597 50.1012 13.6928 50.2356 13.5292C50.1966 13.5107 50.1522 13.4696 50.1186 13.4761C49.5453 13.592 48.9763 13.7286 48.4008 13.8304C48.0064 13.8998 47.6043 13.9388 47.2044 13.9648C46.6257 14.0028 46.0437 14.0569 45.4661 14.032C44.7075 13.9995 43.9499 13.9117 43.1946 13.8229C42.3135 13.7199 41.4584 13.4934 40.6174 13.2149C40.5719 13.1997 40.522 13.2008 40.4733 13.1943C40.4711 13.2181 40.4689 13.242 40.4668 13.2658C40.4679 13.2875 40.4689 13.3092 40.4711 13.3308C40.4581 13.3135 40.444 13.2972 40.431 13.2799C40.3822 13.2333 40.3313 13.1889 40.2847 13.1412C39.5196 12.3446 38.7057 11.6033 37.8214 10.939C37.0129 10.331 36.1687 9.77725 35.2876 9.27981C33.9871 8.54395 32.6346 7.93055 31.217 7.45804C31.2441 7.53173 31.2582 7.6141 31.2994 7.67804C31.8846 8.59922 32.5403 9.46729 33.3065 10.2433L33.3076 10.2422Z" fill="#355FAE"/>
<path d="M31.0491 13.0859C31.1228 13.4067 31.2182 13.7232 31.3038 14.0418C31.4815 14.1686 31.6668 14.2856 31.8348 14.4233C32.6931 15.1244 33.6013 15.753 34.5637 16.3025C35.7406 16.9755 36.9555 17.5704 38.2495 17.9833C39.0634 18.2434 39.8881 18.4699 40.7085 18.7084C40.7605 18.7235 40.818 18.717 40.8721 18.7214C40.7789 18.1427 40.6847 17.5639 40.5925 16.9852C40.5795 16.9018 40.5785 16.8162 40.5719 16.7316C40.5243 16.7251 40.4744 16.724 40.4278 16.711C39.1457 16.3729 37.9103 15.9058 36.7258 15.3152C36.1622 15.0345 35.6171 14.7137 35.0817 14.3832C34.1963 13.838 33.3618 13.2192 32.5902 12.5191C32.3637 12.3132 32.1394 12.1051 31.9215 11.8895C31.6701 11.6402 31.4263 11.3834 31.1813 11.1287C30.9928 10.9325 30.8053 10.7353 30.6167 10.5391C30.6633 10.9184 30.6936 11.301 30.7587 11.6771C30.8399 12.1485 30.9418 12.6177 31.0491 13.0848V13.0859Z" fill="#434EA1"/>
<path d="M60.2191 8.68484C59.7466 9.25164 59.2871 9.83036 58.8027 10.3874C58.0896 11.2089 57.2432 11.8808 56.3686 12.5191C55.5005 13.1531 54.562 13.669 53.5931 14.1274C52.6351 14.5815 51.637 14.9294 50.615 15.209C50.5576 15.2252 50.4936 15.2166 50.4318 15.2198C50.4058 15.598 50.3809 15.9763 50.3527 16.3545C50.3343 16.6027 50.3094 16.8508 50.2866 17.099C50.7656 16.9798 51.2479 16.8736 51.7226 16.7392C52.9635 16.3892 54.1502 15.8982 55.2913 15.3032C56.3762 14.7365 57.4166 14.096 58.3551 13.3048C58.7799 12.9472 59.1852 12.5668 59.6079 12.2059C59.7564 12.0791 59.9265 11.9794 60.088 11.8667C60.1194 11.689 60.1595 11.5112 60.1823 11.3324C60.2365 10.8989 60.2928 10.4654 60.3307 10.0308C60.3752 9.51282 60.4023 8.99371 60.4359 8.47568C60.3633 8.54504 60.2831 8.60789 60.2191 8.68484Z" fill="#3D55A6"/>
<path d="M57.5846 8.26979C56.5268 8.71738 55.5244 9.27008 54.5577 9.88782C53.7015 10.4351 52.8692 11.0171 52.1203 11.7074C51.6326 12.1561 51.146 12.6058 50.6605 13.0567C50.5814 13.1304 50.5164 13.2171 50.4113 13.3341C50.395 13.0523 50.3831 12.828 50.3701 12.6037C50.2205 12.6318 50.0721 12.6589 49.9225 12.6882C49.1281 12.8432 48.3402 13.0545 47.5383 13.1401C46.6897 13.2312 45.826 13.2496 44.972 13.2192C43.7322 13.1759 42.514 12.9548 41.3241 12.5907C41.0683 12.5126 40.8072 12.4509 40.5481 12.3815C40.5221 12.6514 40.4972 12.9223 40.4712 13.1921C40.5189 13.1986 40.5698 13.1976 40.6153 13.2127C41.4563 13.4913 42.3114 13.7178 43.1925 13.8207C43.9478 13.9096 44.7054 13.9974 45.464 14.0299C46.0416 14.0548 46.6236 14.0006 47.2023 13.9627C47.6022 13.9367 48.0043 13.8977 48.3988 13.8283C48.9742 13.7264 49.5432 13.5899 50.1165 13.4739C50.1512 13.4674 50.1945 13.5086 50.2335 13.527C50.2823 13.4869 50.3322 13.4468 50.4026 13.3883C50.4156 13.4988 50.4254 13.5845 50.4351 13.6712C50.848 13.5411 51.2718 13.4371 51.6717 13.2745C52.2948 13.0209 52.9115 12.7478 53.514 12.4487C54.4417 11.9881 55.3109 11.4278 56.1063 10.7613C56.5084 10.4243 56.93 10.1002 57.2854 9.71767C57.8273 9.13136 58.3204 8.49954 58.8309 7.88398C58.8634 7.84388 58.872 7.78427 58.8916 7.73334C58.4548 7.91107 58.017 8.08339 57.5824 8.26762L57.5846 8.26979Z" fill="#3262B0"/>
<path d="M31.6777 15.2892C31.9465 16.0077 32.2359 16.7175 32.5166 17.4317C32.5902 17.4415 32.678 17.4274 32.7355 17.4631C33.8019 18.1188 34.9062 18.6975 36.0582 19.1906C37.7185 19.9005 39.4417 20.3968 41.2103 20.7393C41.2678 20.7501 41.3328 20.7155 41.3946 20.7014C41.2212 20.0414 41.0478 19.3814 40.8733 18.7214C40.818 18.7181 40.7606 18.7235 40.7096 18.7084C39.8892 18.4689 39.0645 18.2434 38.2506 17.9833C36.9566 17.5694 35.7418 16.9744 34.5648 16.3025C33.6025 15.753 32.6943 15.1244 31.836 14.4233C31.6669 14.2856 31.4827 14.1686 31.3049 14.0418C31.3125 14.0884 31.3136 14.1361 31.3277 14.1805C31.4426 14.5511 31.5423 14.9272 31.6788 15.2902L31.6777 15.2892Z" fill="#4A479B"/>
<path d="M58.8939 7.73549C58.8744 7.78643 58.8668 7.84603 58.8332 7.88613C58.3227 8.50169 57.8296 9.13352 57.2878 9.71982C56.9334 10.1035 56.5118 10.4264 56.1087 10.7635C55.3132 11.43 54.4451 11.9903 53.5164 12.4508C52.9138 12.75 52.2971 13.0241 51.674 13.2767C51.2741 13.4392 50.8504 13.5433 50.4374 13.6733C50.4364 14.1892 50.4342 14.705 50.4331 15.2209C50.4938 15.2176 50.5577 15.2252 50.6163 15.2101C51.6382 14.9315 52.6364 14.5826 53.5944 14.1285C54.5632 13.669 55.5018 13.1542 56.3698 12.5202C57.2433 11.8819 58.0908 11.2089 58.8039 10.3885C59.2873 9.83145 59.7468 9.25273 60.2204 8.68593C60.2843 8.60899 60.3645 8.54613 60.4371 8.47677V7.19254C59.9202 7.3746 59.4076 7.55451 58.8939 7.73549Z" fill="#365CAC"/>
<path d="M51.1753 53.6125C51.0485 54.2194 50.9196 54.8295 50.7949 55.4407C50.6703 56.0498 50.55 56.6599 50.4275 57.269C50.3723 57.2332 50.3495 57.1986 50.3419 57.1606C50.3094 57.0067 50.2845 56.8518 50.2498 56.6979C50.0255 55.7193 49.7925 54.7417 49.579 53.7609C49.5486 53.6201 49.4966 53.5984 49.3752 53.5995C48.9634 53.6049 48.5527 53.6016 48.1408 53.6016H47.9165C47.9165 54.37 47.9165 55.1124 47.9165 55.8558C47.9176 56.7835 47.9208 57.7101 47.9241 58.6378C47.9328 58.6464 47.9414 58.6562 47.949 58.6649H48.9396C48.9125 57.2213 48.8854 55.7919 48.8594 54.3613C48.8756 54.3592 48.8919 54.3581 48.907 54.3559C49.2441 55.794 49.5811 57.2322 49.9171 58.6681H50.9347C51.2479 57.2582 51.5622 55.8482 51.8765 54.4372C51.8884 54.4394 51.9003 54.4426 51.9123 54.4448V58.6584H52.8703V53.6114H51.1753V53.6125Z" fill="#2B2A29"/>
<path d="M59.6102 12.207C59.1886 12.5679 58.7822 12.9483 58.3574 13.3059C57.4189 14.097 56.3785 14.7375 55.2936 15.3043C54.1525 15.9004 52.9658 16.3902 51.7249 16.7403C51.2502 16.8747 50.7679 16.9809 50.2889 17.1001C50.2597 17.2377 50.2217 17.3743 50.2011 17.513C50.1578 17.8045 50.122 18.0971 50.083 18.3897C50.471 18.3128 50.8644 18.2564 51.2448 18.1546C52.2722 17.8825 53.2833 17.5574 54.2684 17.1521C55.2319 16.7555 56.1595 16.2905 57.0504 15.7508C57.8816 15.248 58.6825 14.7007 59.4324 14.0797C59.4769 14.0429 59.5408 14.0288 59.5961 14.0049C59.608 13.9854 59.6254 13.9659 59.6297 13.9453C59.7836 13.2528 59.9364 12.5614 60.0892 11.8689C59.9288 11.9816 59.7576 12.0813 59.6091 12.2081L59.6102 12.207Z" fill="#434EA1"/>
<path d="M58.8189 15.9242C57.8739 16.5647 56.8855 17.1283 55.8581 17.6246C54.5425 18.2608 53.1769 18.7636 51.7616 19.1213C51.1243 19.2828 50.4752 19.3976 49.8314 19.5331C49.7588 19.7845 49.6851 20.0349 49.6136 20.2863C49.567 20.4521 49.5226 20.6201 49.4771 20.7859C49.9691 20.7079 50.4698 20.6645 50.952 20.5453C51.9285 20.3036 52.9028 20.049 53.8619 19.7466C55.1179 19.3499 56.3079 18.7853 57.4762 18.1784C57.7016 18.0614 57.9313 17.9508 58.1589 17.8381C58.3301 17.4642 58.509 17.0947 58.6704 16.7165C58.7918 16.4314 58.8904 16.1377 58.9988 15.8473C58.9381 15.8722 58.8709 15.8885 58.8178 15.9242H58.8189Z" fill="#4A479B"/>
<path d="M45.0749 6.08061C45.3371 6.09795 45.5994 6.11204 45.8628 6.11637C46.8067 6.13371 47.7051 5.92563 48.5732 5.56583C48.635 5.53982 48.6978 5.51598 48.7607 5.49105C48.5006 4.9015 48.2394 4.31195 47.9793 3.72239C47.1871 4.12012 46.345 4.29677 45.4639 4.23392C44.6988 4.17865 43.9803 3.95323 43.3225 3.54791C43.2412 3.49805 43.1491 3.46663 43.0613 3.42761C42.7882 4.01717 42.5162 4.60781 42.2441 5.19736C42.5953 5.35559 42.9421 5.52682 43.2997 5.6677C43.8697 5.89312 44.4626 6.03943 45.077 6.07953L45.0749 6.08061Z" fill="#1482C9"/>
<path d="M59.4323 14.0797C58.6834 14.7007 57.8814 15.2469 57.0502 15.7509C56.1594 16.2895 55.2317 16.7555 54.2682 17.1521C53.2831 17.5575 52.2731 17.8826 51.2446 18.1546C50.8631 18.2554 50.4697 18.3128 50.0828 18.3898C49.9983 18.7713 49.9149 19.1527 49.8303 19.5342C50.4741 19.3987 51.1232 19.2828 51.7605 19.1224C53.1769 18.7648 54.5414 18.2608 55.857 17.6257C56.8844 17.1294 57.8728 16.5658 58.8178 15.9253C58.8709 15.8896 58.9381 15.8733 58.9988 15.8484C59.0822 15.6252 59.1754 15.4041 59.247 15.1765C59.3694 14.7885 59.48 14.3962 59.5948 14.006C59.5396 14.031 59.4756 14.044 59.4312 14.0808L59.4323 14.0797Z" fill="#464B9E"/>
<path d="M21.121 58.6724C21.716 58.6757 22.3109 58.6735 22.907 58.6724C22.9482 58.6724 22.9883 58.6659 23.0457 58.6616V56.4215H23.6494V55.716H23.0273V55.043H21.9988V55.7171C21.484 55.7355 21.2651 55.5773 21.2424 55.1416C21.2326 54.9476 21.2575 54.7287 21.3442 54.5596C21.4667 54.3223 21.7452 54.4209 21.9566 54.3884V53.6222C21.7192 53.6222 21.4927 53.6135 21.2662 53.6243C20.6376 53.6525 20.2421 53.995 20.1716 54.5802C20.1478 54.7796 20.138 54.9888 20.1673 55.186C20.2226 55.5567 20.3754 55.8774 20.7525 56.0346C20.7785 56.0454 20.8013 56.0649 20.8685 56.1072C20.345 56.2253 20.0557 56.5277 20.0037 57.0078C19.9744 57.2733 20.0004 57.554 20.0535 57.8184C20.1597 58.3527 20.5737 58.6713 21.1199 58.6746L21.121 58.6724ZM21.173 56.6632C21.367 56.363 21.7084 56.4388 22.0205 56.4291V57.8954C21.7105 57.8769 21.3616 57.9734 21.1708 57.6678C20.9747 57.3524 20.9693 56.9785 21.173 56.6632Z" fill="#2B2A29"/>
<path d="M44.079 12.168C44.8777 12.2731 45.6786 12.3089 46.4784 12.2655C47.7301 12.1983 48.9623 11.9881 50.1577 11.5936C50.1924 11.5828 50.2292 11.5795 50.265 11.573C50.2606 11.5069 50.2617 11.4408 50.252 11.3747C50.2086 11.0842 50.162 10.7938 50.1176 10.5034C49.2788 10.7927 48.4183 10.9889 47.5426 11.1211C47.2359 11.1666 46.9249 11.1839 46.6138 11.2024C46.254 11.223 45.891 11.262 45.5333 11.2338C44.8116 11.1774 44.0909 11.1016 43.3756 10.9932C42.5585 10.8697 41.7695 10.6302 41.0022 10.3202C40.9415 10.2953 40.8722 10.2942 40.8061 10.2812C40.754 10.6367 40.7009 10.9932 40.6489 11.3487C40.7952 11.3909 40.9426 11.4267 41.0857 11.4766C42.0589 11.8103 43.057 12.0325 44.0779 12.1669L44.079 12.168Z" fill="#2A69B6"/>
<path d="M44.9742 13.2203C45.8281 13.2506 46.6908 13.2322 47.5405 13.1412C48.3424 13.0545 49.1303 12.8442 49.9247 12.6893C50.0732 12.66 50.2227 12.6329 50.3723 12.6047C50.3365 12.2612 50.3018 11.9166 50.2661 11.573C50.2303 11.5795 50.1935 11.5817 50.1588 11.5936C48.9634 11.9892 47.7312 12.1983 46.4795 12.2655C45.6797 12.3089 44.8788 12.2731 44.0801 12.168C43.0592 12.0336 42.0611 11.8125 41.0879 11.4776C40.9448 11.4289 40.7963 11.392 40.6511 11.3498C40.6186 11.6944 40.5861 12.0379 40.5525 12.3826C40.8115 12.4519 41.0716 12.5126 41.3284 12.5917C42.5184 12.9548 43.7365 13.1759 44.9763 13.2203H44.9742Z" fill="#2E65B3"/>
<path d="M79.0296 55.1882H77.9849C77.9622 55.0397 77.9351 54.8988 77.9177 54.7569C77.8928 54.5499 77.7346 54.3646 77.5417 54.3255C77.3227 54.2822 77.1093 54.3635 77.0226 54.5683C76.9391 54.7655 76.8578 54.9801 76.8513 55.1893C76.8296 55.8265 76.8329 56.4659 76.8481 57.1043C76.8546 57.3763 76.9196 57.6494 77.1374 57.8444C77.4409 58.1165 77.7671 57.929 77.87 57.657C77.9513 57.4413 77.9708 57.2029 78.0228 56.9536H79.0253C79.1554 57.7534 78.776 58.5651 77.9069 58.7071C77.4463 58.7819 76.989 58.7927 76.5533 58.5641C76.239 58.3993 76.0786 58.1284 75.9594 57.8152C75.6928 57.1118 75.7741 56.3771 75.7828 55.6542C75.7871 55.2641 75.8424 54.8642 75.9442 54.487C76.0515 54.0904 76.2964 53.7685 76.7299 53.6525C77.2989 53.4997 77.8592 53.4705 78.4 53.7598C78.7544 53.9495 78.8996 54.2768 78.9755 54.6431C79.0112 54.8143 79.0112 54.9931 79.0296 55.1882Z" fill="#2B2A29"/>
<path d="M44.4247 10.1696C45.1139 10.2086 45.8053 10.2574 46.4946 10.2368C47.3291 10.2118 48.1549 10.0753 48.9601 9.8412C49.2874 9.74583 49.6136 9.64505 49.9398 9.54643C49.864 9.20288 49.7892 8.85825 49.7133 8.5147C49.5681 8.55805 49.4218 8.59707 49.2776 8.64475C48.5461 8.88426 47.8048 9.08692 47.0343 9.13894C46.4133 9.1812 45.788 9.23864 45.1692 9.20505C43.9381 9.13786 42.747 8.855 41.6102 8.36731C41.4921 8.31638 41.3739 8.26978 41.2547 8.22101C41.2341 8.28061 41.2059 8.34022 41.1929 8.40199C41.1279 8.69786 41.0661 8.99372 41.0022 9.28958C41.4346 9.4413 41.8616 9.60711 42.2994 9.7415C42.993 9.95499 43.6985 10.1306 44.4268 10.1717L44.4247 10.1696Z" fill="#2372BC"/>
<path d="M43.3756 10.9932C44.0908 11.1016 44.8126 11.1764 45.5333 11.2338C45.8909 11.262 46.254 11.223 46.6138 11.2024C46.9237 11.185 47.2359 11.1677 47.5426 11.1211C48.4182 10.99 49.2798 10.7927 50.1175 10.5034C50.0579 10.1837 49.9983 9.86503 49.9387 9.54533C49.6125 9.64395 49.2863 9.74474 48.959 9.84011C48.1538 10.0753 47.328 10.2107 46.4935 10.2357C45.8053 10.2563 45.1128 10.2075 44.4235 10.1685C43.6953 10.1273 42.9908 9.95173 42.2962 9.73823C41.8594 9.60385 41.4313 9.43804 40.9989 9.28632C40.9339 9.61794 40.8689 9.94957 40.8049 10.2823C40.87 10.2942 40.9404 10.2964 41.0011 10.3213C41.7684 10.6312 42.5573 10.8707 43.3745 10.9943L43.3756 10.9932Z" fill="#276DB9"/>
<path d="M59.7401 58.6671C59.5071 58.6671 59.272 58.6562 59.04 58.6736C58.8471 58.6876 58.7734 58.6085 58.7821 58.407C58.7008 58.4774 58.6401 58.5446 58.5664 58.5934C58.1015 58.9022 57.2519 58.8372 57.059 57.967C56.9625 57.5335 57.0037 57.0924 57.008 56.6556C57.0113 56.3739 57.0481 56.0899 57.0926 55.8114C57.1435 55.4895 57.2811 55.2034 57.6193 55.1091C57.9953 55.0051 58.3681 55.0203 58.6792 55.3085C58.7095 55.3367 58.7453 55.3595 58.8049 55.4061V53.6168H59.7748V58.6367C59.7629 58.6476 59.751 58.6584 59.739 58.6681L59.7401 58.6671ZM58.819 57.0133C58.819 57.0133 58.8125 57.0133 58.8092 57.0133C58.8092 56.8236 58.8244 56.6318 58.8049 56.4432C58.7854 56.2503 58.7604 56.0487 58.6835 55.8764C58.6434 55.7865 58.4862 55.7019 58.3811 55.6998C58.2847 55.6987 58.1546 55.7908 58.0972 55.8797C58.0257 55.9913 57.9834 56.1409 57.9801 56.2752C57.9671 56.7044 57.9693 57.1336 57.9823 57.5627C57.9866 57.6993 58.0202 57.8456 58.0809 57.968C58.2056 58.2216 58.5491 58.2292 58.6932 57.9865C58.7442 57.9009 58.7745 57.7936 58.7843 57.6928C58.8059 57.4674 58.8092 57.2398 58.82 57.0133H58.819Z" fill="#2B2A29"/>
<path d="M45.463 4.23392C46.344 4.29678 47.1861 4.12013 47.9783 3.72239C47.612 3.08515 47.2457 2.44791 46.8794 1.81067C46.6128 2.01767 46.2931 2.07294 45.9723 2.09786C45.3903 2.14338 44.8626 1.98624 44.4052 1.61668C44.3456 1.56791 44.3012 1.50072 44.2502 1.4422C43.8536 2.10437 43.457 2.76653 43.0603 3.42762C43.1481 3.46771 43.2402 3.49806 43.3215 3.54791C43.9793 3.95214 44.6978 4.17865 45.463 4.23392Z" fill="#0D8ACF"/>
<path d="M45.1682 9.20288C45.7871 9.23647 46.4124 9.17904 47.0334 9.13677C47.8039 9.08475 48.5452 8.88209 49.2767 8.64259C49.4208 8.5949 49.5672 8.55589 49.7124 8.51254C49.6268 8.18091 49.5401 7.84929 49.4534 7.51766C49.3027 7.56318 49.1499 7.60328 49.0004 7.6553C48.2775 7.90456 47.5395 8.08988 46.7744 8.14515C46.3853 8.17333 45.9941 8.22751 45.6061 8.21234C44.3088 8.1614 43.0517 7.91431 41.8683 7.3551C41.7534 7.30091 41.6287 7.26732 41.5095 7.22397C41.4239 7.55559 41.3383 7.88722 41.2527 8.21884C41.3708 8.26761 41.49 8.3153 41.6082 8.36515C42.7461 8.85283 43.936 9.13677 45.1672 9.20288H45.1682Z" fill="#1F76C0"/>
<path d="M45.607 8.21234C45.995 8.22751 46.3863 8.17333 46.7753 8.14515C47.5404 8.08988 48.2774 7.90456 49.0013 7.65529C49.1509 7.60436 49.3037 7.56318 49.4543 7.51766C49.346 7.17411 49.2365 6.83057 49.127 6.48594C48.6632 6.63875 48.2048 6.80781 47.7355 6.93894C46.8783 7.17845 45.9929 7.19904 45.1161 7.13835C44.0226 7.06249 42.9779 6.7688 42.0079 6.2421C41.9657 6.21934 41.9169 6.20742 41.8714 6.19116C41.7511 6.53471 41.6308 6.87825 41.5105 7.22288C41.6308 7.26623 41.7554 7.29983 41.8692 7.35401C43.0527 7.91323 44.3087 8.1614 45.607 8.21125V8.21234Z" fill="#1C7AC3"/>
<path d="M57.4763 18.1784C56.308 18.7853 55.1181 19.35 53.862 19.7466C52.904 20.049 51.9286 20.3037 50.9522 20.5453C50.4699 20.6645 49.9692 20.7079 49.4772 20.7859C49.3125 21.2064 49.1662 21.6345 48.9787 22.0442C48.7533 22.5362 48.4964 23.0141 48.2461 23.4942C48.1475 23.6828 48.0293 23.8616 47.9426 24.0707C48.0521 23.9754 48.1648 23.8843 48.2699 23.7857C48.5539 23.517 48.8259 23.2363 49.1163 22.9762C49.4382 22.689 49.7644 22.4029 50.1101 22.146C50.9348 21.5326 51.8116 20.9983 52.7642 20.6082C53.3657 20.3611 53.9769 20.127 54.6001 19.9439C55.1603 19.7791 55.7434 19.6903 56.3167 19.57C56.463 19.5396 56.6115 19.5158 56.7589 19.4898C56.9507 19.2622 57.227 19.1885 57.4904 19.0899C57.7136 18.6726 57.938 18.2543 58.1612 17.8371C57.9336 17.9509 57.7039 18.0603 57.4785 18.1774L57.4763 18.1784Z" fill="#534196"/>
<path d="M27.0024 56.3674H28.4427V55.5871H27.0057V54.3863H28.5207V53.6168H25.9436V58.666H27.0035V56.3674H27.0024Z" fill="#2B2A29"/>
<path d="M45.116 7.13944C45.9928 7.20013 46.8782 7.18062 47.7354 6.94003C48.2047 6.80889 48.6642 6.63875 49.127 6.48702C49.0045 6.1554 48.882 5.82377 48.7596 5.49106C48.6967 5.51599 48.6349 5.54092 48.5721 5.56584C47.704 5.92564 46.8056 6.13264 45.8616 6.11639C45.5994 6.11205 45.336 6.09688 45.0738 6.08062C44.4593 6.04052 43.8665 5.89422 43.2964 5.6688C42.9388 5.52683 42.592 5.3556 42.2409 5.19846C42.1173 5.53008 41.9927 5.8617 41.8691 6.19333C41.9147 6.20959 41.9634 6.22151 42.0057 6.24427C42.9767 6.76988 44.0215 7.06357 45.1139 7.14052L45.116 7.13944Z" fill="#187EC6"/>
<path d="M73.4212 57.01H71.5496C71.5138 57.3112 71.5333 57.5974 71.6363 57.8726C71.7143 58.0818 71.8823 58.1663 72.0828 58.1241C72.2572 58.0861 72.4252 57.8509 72.4252 57.644C72.4252 57.5583 72.4252 57.4727 72.4252 57.3741H73.4114C73.4765 57.8531 73.2261 58.3722 72.8468 58.5695C72.3385 58.8339 71.8118 58.8003 71.3003 58.654C70.9026 58.5402 70.7086 58.2021 70.6219 57.7946C70.5243 57.3427 70.5287 56.8875 70.5471 56.4334C70.5612 56.0975 70.6555 55.7691 70.8516 55.4873C71.0326 55.2272 71.3111 55.1308 71.6103 55.0896C72.0015 55.0354 72.3884 55.0321 72.7612 55.198C73.2109 55.3984 73.3789 55.7788 73.419 56.2318C73.4407 56.4811 73.4234 56.7347 73.4234 57.01H73.4212ZM72.4198 56.4497C72.4198 56.3272 72.4187 56.2178 72.4198 56.1083C72.4241 55.8504 72.3223 55.677 72.1489 55.6499C71.8248 55.6 71.6666 55.6954 71.5973 56.0064C71.5658 56.1462 71.568 56.2936 71.5539 56.4497H72.4187H72.4198Z" fill="#2B2A29"/>
<path d="M56.4629 57.0111H54.5934C54.5707 57.3102 54.5707 57.5963 54.6769 57.8748C54.743 58.0493 54.8622 58.1393 55.0518 58.1295C55.2003 58.1219 55.3856 57.9843 55.429 57.8347C55.4507 57.7621 55.4593 57.6841 55.4658 57.6071C55.4723 57.5345 55.4669 57.4608 55.4669 57.3741H56.4553C56.4965 58.1262 56.1193 58.6519 55.3596 58.7321C54.9749 58.7732 54.5815 58.7895 54.2184 58.5977C53.9074 58.434 53.7112 58.1663 53.6701 57.8315C53.6115 57.3579 53.5747 56.8756 53.5964 56.4009C53.617 55.9609 53.7221 55.5144 54.1491 55.2619C54.3051 55.1698 54.4926 55.1156 54.6725 55.0864C55.0237 55.0289 55.378 55.0376 55.7194 55.1622C56.2006 55.3389 56.4065 55.7214 56.4553 56.1983C56.4824 56.4595 56.4596 56.725 56.4596 57.0111H56.4629ZM54.5468 56.4497H55.468C55.468 56.2893 55.4799 56.1365 55.4647 55.9859C55.4485 55.8244 55.3705 55.6878 55.1971 55.6521C54.937 55.599 54.7711 55.6542 54.6985 55.8471C54.6281 56.0335 54.5988 56.2362 54.5468 56.4497Z" fill="#2B2A29"/>
<path d="M69.9144 58.6659H68.925C68.925 58.5988 68.925 58.5337 68.925 58.4687C68.925 57.7318 68.9261 56.9948 68.9228 56.2579C68.9228 56.1387 68.9098 56.0173 68.8827 55.9013C68.8437 55.7344 68.679 55.6553 68.4633 55.6846C68.3105 55.7052 68.1837 55.8666 68.1826 56.0585C68.1794 56.8138 68.1804 57.5692 68.1804 58.3246C68.1804 58.434 68.1804 58.5435 68.1804 58.6638H67.178V55.147H68.1328C68.1468 55.2294 68.1609 55.3128 68.1815 55.4375C68.4806 55.0462 68.8545 55.0202 69.2544 55.0907C69.7269 55.1741 69.9036 55.496 69.9101 55.9024C69.9242 56.8171 69.9144 57.7318 69.9144 58.667V58.6659Z" fill="#2B2A29"/>
<path d="M85.7218 58.666H84.7312V58.4438C84.7312 57.7383 84.7323 57.0317 84.7302 56.3262C84.7302 56.1885 84.7367 56.0411 84.6922 55.9165C84.6597 55.8255 84.5568 55.716 84.4679 55.6976C84.2273 55.6456 84.0875 55.716 84.0322 55.884C83.9986 55.9859 83.991 56.0986 83.99 56.2069C83.9867 56.9623 83.9878 57.7177 83.9878 58.472C83.9878 58.5327 83.9878 58.5923 83.9878 58.6627H82.9929V55.146H83.9466C83.952 55.237 83.9575 55.3302 83.965 55.4581C84.0062 55.4136 84.0279 55.3931 84.0463 55.3692C84.3043 55.0246 84.6727 55.0159 85.0369 55.082C85.5094 55.1676 85.7044 55.4006 85.7174 55.9273C85.7391 56.8344 85.7229 57.7426 85.7229 58.666H85.7218Z" fill="#2B2A29"/>
<path d="M33.9764 56.2329C33.9764 56.1235 33.984 56.0108 34.0143 55.9067C34.0674 55.729 34.2289 55.638 34.4164 55.6564C34.5919 55.6737 34.6743 55.7843 34.696 55.9468C34.709 56.0498 34.7176 56.1538 34.7176 56.2579C34.7198 57.0013 34.7176 57.7437 34.7187 58.4871V58.6649H35.6778C35.6865 58.6551 35.6952 58.6464 35.7039 58.6367C35.7049 57.722 35.7147 56.8073 35.7039 55.8926C35.7006 55.5556 35.5771 55.2565 35.227 55.134C34.8347 54.9975 34.3264 54.9899 34.0414 55.3887C34.0262 55.4093 33.9959 55.419 33.9536 55.4461C33.9471 55.3313 33.9428 55.2381 33.9374 55.1459H32.9761V58.6584H33.9731C33.9731 57.8401 33.972 57.036 33.9742 56.2329H33.9764Z" fill="#2B2A29"/>
<path d="M37.2015 58.6724C37.5938 58.7819 37.9905 58.7852 38.3828 58.6746C38.9615 58.511 39.2964 57.968 39.1956 57.3611C38.9951 57.3611 38.7935 57.3589 38.5909 57.3611C38.476 57.3633 38.3308 57.3351 38.2549 57.3925C38.1986 57.4359 38.23 57.5952 38.2202 57.7025C38.2007 57.9344 38.0544 58.1035 37.855 58.1252C37.6177 58.1512 37.4616 58.0525 37.4063 57.7914C37.3532 57.541 37.3391 57.282 37.3066 57.0111H39.2314C39.2129 56.6773 39.2064 56.3662 39.175 56.0574C39.1317 55.6293 38.8976 55.3302 38.4998 55.1709C38.1303 55.0224 37.7445 55.0235 37.3586 55.0939C36.8861 55.1806 36.5686 55.4516 36.4505 55.9219C36.2782 56.6014 36.2998 57.2842 36.4743 57.9604C36.5719 58.3376 36.832 58.5673 37.2004 58.6714L37.2015 58.6724ZM37.4378 55.8677C37.5104 55.6629 37.6719 55.6076 37.9428 55.651C38.0837 55.6737 38.2072 55.8211 38.217 55.9999C38.2256 56.1452 38.2191 56.2915 38.2191 56.4529H37.3023C37.3478 56.247 37.3727 56.0498 37.4367 55.8688L37.4378 55.8677Z" fill="#2B2A29"/>
<path d="M8.12473 58.68C8.42493 58.7331 8.74464 58.7505 9.047 58.7125C9.64523 58.6367 9.92483 58.3603 10.0386 57.7675C10.095 57.4706 10.0971 57.1628 10.1318 56.7716C10.0939 56.5201 10.0711 56.182 9.98877 55.859C9.87823 55.4266 9.56828 55.1611 9.13153 55.1037C8.82592 55.0636 8.50621 55.0647 8.2006 55.1091C7.78336 55.1698 7.47341 55.4201 7.35528 55.8341C7.27075 56.1311 7.21222 56.4432 7.19922 56.751C7.18622 57.0653 7.22198 57.386 7.27291 57.6982C7.35419 58.1923 7.59587 58.5857 8.12582 58.6789L8.12473 58.68ZM8.28621 55.9815C8.3404 55.8038 8.45202 55.6835 8.65468 55.6813C8.84434 55.6791 9.00257 55.7669 9.04808 55.9739C9.11094 56.2644 9.12828 56.5646 9.16513 56.8604C9.15862 56.8615 9.15212 56.8637 9.14562 56.8648C9.1337 57.0913 9.12395 57.3178 9.10661 57.5432C9.1001 57.6277 9.08276 57.7133 9.05675 57.7946C8.98631 58.0189 8.85626 58.1284 8.67311 58.1295C8.48454 58.1306 8.35774 58.033 8.29055 57.7989C8.24178 57.6331 8.20168 57.4587 8.19301 57.2874C8.17134 56.8496 8.154 56.4085 8.28513 55.9815H8.28621Z" fill="#2B2A29"/>
<path d="M63.9668 57.3741C63.9928 57.3698 64.0221 57.3611 64.0513 57.3611C64.3385 57.3611 64.6268 57.3611 64.9129 57.3611C64.9627 58.0102 64.6571 58.55 64.0145 58.6995C63.5723 58.8025 63.1225 58.7905 62.6966 58.6171C62.391 58.4925 62.2317 58.2227 62.1515 57.917C62.0366 57.477 61.9922 57.024 62.0334 56.5732C62.0594 56.2838 62.132 55.9945 62.2241 55.7181C62.3238 55.4179 62.5547 55.2283 62.8646 55.1448C63.3306 55.0202 63.7955 54.9985 64.2453 55.2012C64.7232 55.4169 64.9573 55.8308 64.927 56.3738H63.9657C63.9484 56.2817 63.9245 56.1841 63.9137 56.0844C63.8909 55.8774 63.7414 55.7116 63.5409 55.6824C63.3577 55.6553 63.2168 55.7441 63.1301 55.9457C63.102 56.0118 63.0651 56.0823 63.0651 56.1505C63.0705 56.6827 63.0651 57.2169 63.103 57.7469C63.1215 58.0102 63.3122 58.1457 63.5333 58.1273C63.7078 58.1121 63.8757 57.9842 63.9072 57.7003C63.9191 57.5941 63.944 57.4879 63.9646 57.3741H63.9668Z" fill="#2B2A29"/>
<path d="M16.3592 58.149C16.2009 58.1458 16.1012 58.02 16.0687 57.8629C16.0449 57.7459 16.034 57.6256 16.0178 57.5118H15.0457C15.0229 58.1967 15.3177 58.589 15.7999 58.6573C16.1619 58.7082 16.5423 58.693 16.9054 58.6432C17.3334 58.5836 17.6564 58.3528 17.7431 57.8867C17.8309 57.4186 17.6456 57.0718 17.2576 56.8247C17.0148 56.6697 16.7591 56.5375 16.5152 56.3847C16.3657 56.2904 16.2096 56.1939 16.0926 56.0661C16.0297 55.9967 16.0026 55.8428 16.0351 55.7561C16.0644 55.6781 16.1923 55.6055 16.2865 55.5881C16.5358 55.5426 16.6799 55.6716 16.706 55.9263C16.7114 55.9848 16.7179 56.0422 16.7233 56.1051H17.6098C17.6412 55.4993 17.4245 55.2034 16.8468 55.0929C16.6333 55.0517 16.4047 55.0441 16.189 55.0701C15.9636 55.0972 15.723 55.1427 15.529 55.2511C14.9286 55.5849 14.9048 56.3684 15.4716 56.7542C15.6786 56.8951 15.9094 56.9992 16.1229 57.1314C16.3201 57.2538 16.5152 57.3806 16.6951 57.5259C16.8317 57.6364 16.8588 57.799 16.7796 57.9604C16.6951 58.136 16.5141 58.1544 16.357 58.1523L16.3592 58.149Z" fill="#2B2A29"/>
<path d="M40.1354 56.7769C40.376 56.933 40.6415 57.0522 40.8853 57.2039C41.0501 57.3069 41.2278 57.4131 41.3438 57.5627C41.4175 57.6569 41.4315 57.8455 41.3936 57.968C41.3416 58.1403 41.1389 58.1587 40.9916 58.1457C40.8951 58.137 40.777 58.0297 40.7282 57.9355C40.6632 57.813 40.6567 57.6602 40.6231 57.5074H39.7127C39.6 58.1056 39.9002 58.589 40.4876 58.6681C40.8322 58.7147 41.1953 58.6919 41.541 58.6421C41.9723 58.5792 42.2931 58.3408 42.3744 57.878C42.4535 57.4229 42.279 57.0717 41.8932 56.829C41.6656 56.6848 41.4272 56.558 41.1985 56.4161C41.0479 56.3229 40.8994 56.2242 40.7596 56.1148C40.6317 56.014 40.5841 55.8785 40.6632 55.7225C40.7239 55.6032 40.9244 55.5415 41.0913 55.5902C41.2451 55.6347 41.3275 55.7344 41.3178 55.9024C41.3134 55.9663 41.3178 56.0313 41.3178 56.1104C41.618 56.1104 41.8943 56.1137 42.1696 56.1072C42.2032 56.1072 42.2595 56.0617 42.2639 56.0302C42.317 55.7116 42.1284 55.3377 41.8098 55.2033C41.2852 54.9823 40.739 54.9649 40.2243 55.212C39.5404 55.5404 39.5025 56.3662 40.1365 56.778L40.1354 56.7769Z" fill="#2B2A29"/>
<path d="M43.2109 56.7282C43.4298 56.8745 43.6682 56.9894 43.8915 57.1281C44.0833 57.2473 44.2751 57.3687 44.4518 57.5096C44.5927 57.6223 44.6382 57.7805 44.5547 57.9561C44.4962 58.0775 44.2794 58.1847 44.1331 58.1555C43.95 58.1186 43.8535 57.9918 43.8243 57.813C43.808 57.7122 43.8004 57.6093 43.7885 57.4987H42.8489C42.7514 58.1241 43.0527 58.5706 43.64 58.6778C44.0291 58.7494 44.4182 58.732 44.8007 58.6215C45.2071 58.5034 45.4716 58.2509 45.5128 57.8195C45.5485 57.4413 45.4477 57.1053 45.1118 56.8843C44.8874 56.7358 44.6523 56.6036 44.4236 56.4616C44.2578 56.3586 44.0855 56.2611 43.9316 56.1419C43.7603 56.0097 43.7278 55.846 43.8167 55.7095C43.8969 55.5859 44.1321 55.5198 44.2805 55.6163C44.3705 55.6748 44.4258 55.7973 44.4767 55.9013C44.5038 55.9555 44.4886 56.0313 44.4929 56.1029H45.3903C45.4542 55.587 45.2017 55.211 44.6956 55.108C44.4528 55.0592 44.1971 55.0744 43.9467 55.0625C43.678 55.0495 43.4406 55.1427 43.2239 55.2901C42.9811 55.4548 42.8511 55.6965 42.8327 55.9826C42.8131 56.298 42.953 56.5548 43.213 56.7293L43.2109 56.7282Z" fill="#2B2A29"/>
<path d="M30.9648 55.9468C30.9648 56.5483 30.9626 57.1498 30.9648 57.7513C30.9681 58.4351 31.265 58.7223 31.9521 58.7082C32.145 58.7039 32.3368 58.6844 32.5373 58.6703V58.0818C32.4701 58.0818 32.4159 58.0818 32.3607 58.0818C32.0193 58.0861 31.9499 58.0233 31.9478 57.6776C31.9434 57.0826 31.9478 56.4876 31.9434 55.8916C31.9423 55.7604 31.9944 55.7171 32.1179 55.7236C32.2566 55.7301 32.3964 55.7247 32.5341 55.7247V55.1308H31.9402V54.1121C31.7245 54.2053 31.5414 54.3082 31.3452 54.3646C31.0396 54.4524 30.8976 54.6203 30.9648 54.9433C30.9767 55.0007 30.967 55.0614 30.967 55.1362H30.4912V55.7301H30.967V55.9457L30.9648 55.9468Z" fill="#2B2A29"/>
<path d="M13.1881 55.9512C13.1892 56.6014 13.1837 57.2517 13.1957 57.9019C13.2022 58.2704 13.3582 58.5587 13.7375 58.666C14.0843 58.7635 14.4311 58.7071 14.7714 58.654V58.0807C14.714 58.0807 14.6706 58.0807 14.6284 58.0807C14.2317 58.0916 14.1613 58.0255 14.1591 57.6353C14.1569 57.2365 14.1591 56.8377 14.1591 56.4389V55.7344H14.7768V55.1319H14.1515V54.1132C13.8253 54.2562 13.523 54.3852 13.2249 54.525C13.1903 54.5412 13.1664 54.6106 13.1642 54.6572C13.1567 54.8143 13.161 54.9715 13.161 55.1405H12.7329V55.7334H13.1892C13.1892 55.819 13.1892 55.8851 13.1892 55.9512H13.1881Z" fill="#2B2A29"/>
<path d="M80.6021 58.666H79.6711V53.6168H80.627C80.6303 53.6537 80.6357 53.6883 80.6357 53.723C80.6357 55.3302 80.6357 56.9385 80.6357 58.5457C80.6357 58.576 80.6313 58.6064 80.6292 58.6367C80.6205 58.6465 80.6107 58.6551 80.6021 58.6649V58.666Z" fill="#2B2A29"/>
<path d="M11.7347 57.6418C11.739 57.2679 11.7347 56.8929 11.7596 56.5201C11.7846 56.1549 11.9439 56.0054 12.3048 55.9447C12.3915 55.9295 12.4782 55.91 12.5616 55.8926V55.0603C12.1736 55.0376 11.8788 55.1785 11.6773 55.5567C11.648 55.3876 11.6274 55.2641 11.6057 55.1384H10.7637V58.6627H11.7347C11.7347 58.3159 11.7315 57.9789 11.7347 57.6418Z" fill="#2B2A29"/>
<path d="M66.4788 58.6659H65.511V55.1459H66.4788V58.6659Z" fill="#2B2A29"/>
<path d="M82.2862 58.6659H81.3174V55.1448H82.2862V58.6659Z" fill="#2B2A29"/>
<path d="M60.4532 58.6377C60.4532 57.4825 60.4532 56.3272 60.4532 55.1709C60.4619 55.1622 60.4695 55.1535 60.4782 55.1448H61.4253V58.6659H60.4782C60.4695 58.6562 60.4608 58.6475 60.4521 58.6377H60.4532Z" fill="#2B2A29"/>
<path d="M30.1498 55.1416H29.1907V58.6627H30.1498V55.1416Z" fill="#2B2A29"/>
<path d="M86.4263 55.1416H87.3865V58.6627H86.4263V55.1416Z" fill="#2B2A29"/>
<path d="M45.9722 2.09679C46.293 2.07186 46.6127 2.01767 46.8793 1.80959C46.6755 1.5159 46.4815 1.21354 46.2648 0.928512C46.0329 0.62398 45.7825 0.332451 45.5322 0.0420085C45.5029 0.00732877 45.3891 -0.0121783 45.3729 0.00841278C44.9936 0.482008 44.6218 0.962106 44.249 1.44112C44.3 1.49964 44.3444 1.56792 44.404 1.6156C44.8613 1.98516 45.3891 2.1423 45.9711 2.09679H45.9722Z" fill="#0593D6"/>
<path d="M82.2895 53.6146V54.4307H81.3196V53.6146H82.2895Z" fill="#2B2A29"/>
<path d="M61.433 53.6157V54.4263H60.4565V53.6157H61.433Z" fill="#2B2A29"/>
<path d="M86.3948 54.4253V53.6146H87.3842V54.4253H86.3948Z" fill="#2B2A29"/>
<path d="M30.1453 53.6201H29.1677V54.4253H30.1453V53.6201Z" fill="#2B2A29"/>
<path d="M66.4788 54.4318H65.5132V53.6168H66.4788V54.4318Z" fill="#2B2A29"/>
<path d="M40.4669 13.2658C40.455 13.2702 40.4431 13.2745 40.4312 13.2799C40.4442 13.2973 40.4582 13.3135 40.4713 13.3309C40.4702 13.3092 40.4691 13.2875 40.4669 13.2658Z" fill="#3262B0"/>
<path d="M59.7402 58.667C59.7522 58.6562 59.7641 58.6454 59.776 58.6356C59.7641 58.6465 59.7522 58.6573 59.7402 58.667Z" fill="#2B2A29"/>
<path d="M43.1113 15.4452C43.5459 15.4994 43.9805 15.5569 44.4172 15.5861C45.0024 15.6252 45.5887 15.6663 46.174 15.6555C46.7451 15.6447 47.3151 15.5699 47.8852 15.52C48.1648 15.4962 48.4433 15.468 48.7218 15.4409C48.7793 15.364 48.8378 15.2881 48.8942 15.2112C49.0968 14.9326 49.2995 14.653 49.5021 14.3745C49.0806 14.4385 48.6601 14.5132 48.2374 14.562C47.6381 14.6314 47.0388 14.7083 46.4373 14.7343C45.8944 14.7582 45.3471 14.7278 44.803 14.7018C44.3468 14.6801 43.8873 14.6563 43.4364 14.5848C42.7992 14.4829 42.1695 14.3333 41.5355 14.2087C41.438 14.1892 41.3351 14.1968 41.2354 14.1924C41.5182 14.5609 41.8 14.9294 42.0828 15.2979C42.4253 15.3477 42.7678 15.403 43.1124 15.4452H43.1113Z" fill="#365CAC"/>
<path d="M43.0006 16.736C43.382 16.7685 43.7624 16.8021 44.1439 16.8335C44.3617 16.8508 44.5806 16.8747 44.7996 16.8779C45.3165 16.8844 45.8345 16.8899 46.3504 16.8779C46.8554 16.866 47.3604 16.8313 47.8655 16.8064C48.1505 16.3512 48.4366 15.8971 48.7216 15.442C48.4431 15.468 48.1646 15.4962 47.885 15.5211C47.3149 15.5699 46.7449 15.6446 46.1737 15.6566C45.5885 15.6674 45.0022 15.6262 44.417 15.5872C43.9803 15.5579 43.5457 15.4994 43.1111 15.4463C42.7675 15.404 42.4251 15.3488 42.0815 15.2989C42.1433 15.3965 42.2062 15.4929 42.2679 15.5904C42.5118 15.973 42.7567 16.3545 43.0006 16.737V16.736Z" fill="#3C56A7"/>
<path d="M44.2449 18.0993C45.0219 18.121 45.7979 18.1481 46.5749 18.1654C46.7754 18.1698 46.977 18.1448 47.1786 18.1329C47.4072 17.6908 47.637 17.2475 47.8656 16.8053C47.3606 16.8303 46.8567 16.8649 46.3506 16.8769C45.8336 16.8888 45.3167 16.8844 44.7997 16.8769C44.5808 16.8736 44.363 16.8509 44.1441 16.8324C43.7626 16.801 43.3822 16.7674 43.0007 16.7349C43.2348 17.1901 43.4678 17.6442 43.7019 18.0993C43.8829 18.0993 44.0639 18.0939 44.2449 18.0993Z" fill="#3D55A6"/>
<path d="M45.8716 19.5678C46.1219 19.57 46.3712 19.545 46.6215 19.5331C46.6724 19.4041 46.7212 19.2752 46.7732 19.1462C46.9076 18.8081 47.0431 18.471 47.1785 18.134C46.977 18.1459 46.7765 18.1708 46.5749 18.1665C45.7979 18.1492 45.0219 18.1221 44.2449 18.1004C44.0639 18.095 43.8829 18.1004 43.7019 18.1004C43.8926 18.5783 44.0834 19.0563 44.2752 19.5331C44.8073 19.545 45.3394 19.5635 45.8716 19.5678Z" fill="#434EA1"/>
<path d="M46.1381 21.1544C46.2996 20.6136 46.4611 20.0728 46.6214 19.532C46.3711 19.545 46.1218 19.5689 45.8715 19.5667C45.3394 19.5624 44.8073 19.545 44.2751 19.532C44.4345 20.0598 44.5938 20.5887 44.752 21.1165C45.2137 21.1284 45.6753 21.1414 46.1381 21.1533V21.1544Z" fill="#4A479B"/>
<path d="M45.3263 24.6624C45.374 25.1978 45.3816 25.7353 45.4076 26.2729C45.4098 26.3097 45.4206 26.3455 45.4271 26.3823C45.4726 26.3184 45.4791 26.2555 45.4802 26.1927C45.4824 26.0019 45.4694 25.8112 45.4846 25.6226C45.5257 25.1263 45.5713 24.6288 45.6298 24.1336C45.6883 23.6383 45.7501 23.143 45.8346 22.6521C45.9202 22.1503 46.0351 21.654 46.1381 21.1554C45.6764 21.1435 45.2147 21.1305 44.752 21.1186C44.7671 21.1955 44.7801 21.2736 44.7986 21.3505C45.0662 22.4397 45.2277 23.5473 45.3263 24.6624Z" fill="#534196"/>
<path d="M42.9423 24.0252C42.9336 24.0328 42.9249 24.0393 42.9163 24.0469C42.9336 24.0631 42.9509 24.0794 42.9683 24.0956C42.9596 24.0718 42.9509 24.048 42.9423 24.0252Z" fill="#514096"/>
<path d="M42.9748 24.1022C42.9748 24.1022 42.9705 24.0978 42.9683 24.0956C42.9694 24.0989 42.9705 24.1022 42.9716 24.1055L42.9748 24.1011V24.1022Z" fill="#514096"/>
<path d="M42.9974 24.1054C42.9909 24.1054 42.9844 24.1054 42.9768 24.1054C42.9811 24.113 42.9855 24.1195 42.9898 24.1271C42.992 24.1195 42.9941 24.1119 42.9974 24.1054Z" fill="#514096"/>
<path d="M42.9747 24.1022L42.9714 24.1066H42.9769C42.9769 24.1066 42.9747 24.1044 42.9747 24.1022Z" fill="#514096"/>
</svg>
