<svg width="16" height="16" viewBox="0 0 16 16" fill="none" xmlns="http://www.w3.org/2000/svg">
<path d="M0 1.77008C0 1.257 0.180185 0.833724 0.540541 0.50024C0.900896 0.166742 1.36937 0 1.94595 0C2.51223 0 2.97039 0.164171 3.32046 0.492544C3.68082 0.831169 3.861 1.2724 3.861 1.81626C3.861 2.3088 3.68598 2.71924 3.33591 3.04762C2.97555 3.38624 2.50193 3.55555 1.91506 3.55555H1.89961C1.33333 3.55555 0.875166 3.38624 0.525097 3.04762C0.175027 2.70899 0 2.28314 0 1.77008ZM0.200772 15.2381V4.95623H3.62934V15.2381H0.200772ZM5.52896 15.2381H8.95753V9.49687C8.95753 9.13771 8.99872 8.86066 9.08108 8.6657C9.22522 8.31681 9.44402 8.02179 9.73745 7.78066C10.0309 7.53951 10.399 7.41895 10.8417 7.41895C11.9949 7.41895 12.5714 8.19367 12.5714 9.74314V15.2381H16V9.34295C16 7.82427 15.6396 6.67244 14.9189 5.88744C14.1982 5.10245 13.2458 4.70995 12.0618 4.70995C10.7336 4.70995 9.69884 5.27946 8.95753 6.41847V6.44925H8.94209L8.95753 6.41847V4.95623H5.52896C5.54954 5.28459 5.55985 6.30558 5.55985 8.01924C5.55985 9.73288 5.54954 12.1392 5.52896 15.2381Z" fill="#ED4008"/>
</svg>
