<svg width="12" height="12" viewBox="0 0 12 12" fill="none" xmlns="http://www.w3.org/2000/svg">
<g clip-path="url(#clip0_612_2942)">
<mask id="mask0_612_2942" style="mask-type:luminance" maskUnits="userSpaceOnUse" x="0" y="0" width="12" height="12">
<path d="M0 9.53674e-07H12V12H0V9.53674e-07Z" fill="white"/>
</mask>
<g mask="url(#mask0_612_2942)">
<path d="M6.00079 2.23434H5.05937C4.75982 2.23434 4.4725 2.35333 4.2607 2.56516C4.04887 2.77716 3.92969 3.06448 3.92969 3.36403V3.7406H4.8711C5.17084 3.7406 5.45816 3.62159 5.66997 3.40978C5.8818 3.19776 6.00079 2.91047 6.00079 2.61091V2.23434Z" stroke="black" stroke-miterlimit="10" stroke-linecap="round" stroke-linejoin="round"/>
<path d="M8.0711 3.36405C8.0711 3.0645 7.95211 2.77718 7.74028 2.56519C7.52848 2.35336 7.24116 2.23437 6.94141 2.23437H6V2.61094C6 2.91047 6.11918 3.19779 6.33101 3.4098C6.54281 3.62161 6.83013 3.7406 7.12969 3.7406H8.0711V3.36405Z" stroke="black" stroke-miterlimit="10" stroke-linecap="round" stroke-linejoin="round"/>
<path d="M8.07187 1.48122C8.07187 0.857241 7.56616 0.35153 6.94218 0.35153H5.05937C4.43559 0.35153 3.92969 0.857241 3.92969 1.48122V4.11716C3.92969 4.74112 4.43559 5.24683 5.05937 5.24683H6.94218C7.56616 5.24683 8.07187 4.74112 8.07187 4.11716V1.48122Z" stroke="black" stroke-miterlimit="10" stroke-linecap="round" stroke-linejoin="round"/>
<path d="M1.85782 7.12969V4.49337C1.85782 4.09404 1.69929 3.71088 1.41687 3.42865C1.13445 3.14623 0.751477 2.98751 0.351937 2.98751H0.351562V8.63595L2.23437 10.5188V11.6484H4.87031V8.64931C4.87031 8.39965 4.77127 8.16014 4.59466 7.98375C4.27252 7.6616 3.71632 7.10541 3.18914 6.5782C2.96623 6.35513 2.6307 6.28845 2.33925 6.40913C2.04797 6.52983 1.85782 6.81415 1.85782 7.12969ZM1.85782 7.12969C1.85782 7.37088 1.95363 7.60209 2.12405 7.77248L2.98751 8.63595" stroke="black" stroke-miterlimit="10" stroke-linecap="round" stroke-linejoin="round"/>
<path d="M10.1414 7.12969V4.49337C10.1414 4.09404 10.3001 3.71088 10.5826 3.42865C10.865 3.14623 11.2479 2.98751 11.6473 2.98751H11.6477V8.63595L9.76485 10.5188V11.6484H7.12891V8.64931C7.12891 8.39965 7.22814 8.16014 7.40474 7.98375C7.72689 7.6616 8.28306 7.10541 8.81024 6.5782C9.03318 6.35513 9.36871 6.28845 9.65997 6.40913C9.95141 6.52983 10.1414 6.81415 10.1414 7.12969ZM10.1414 7.12969C10.1414 7.37088 10.0457 7.60209 9.87517 7.77248C9.54135 8.10649 9.01171 8.63595 9.01171 8.63595" stroke="black" stroke-miterlimit="10" stroke-linecap="round" stroke-linejoin="round"/>
</g>
</g>
<defs>
<clipPath id="clip0_612_2942">
<rect width="12" height="12" fill="white"/>
</clipPath>
</defs>
</svg>
