<svg width="18" height="13" viewBox="0 0 18 13" fill="none" xmlns="http://www.w3.org/2000/svg">
<path d="M9.18992 12.4251L5.57908 12.3576C4.40997 12.3341 3.23795 12.381 2.09177 12.1374C0.348153 11.7734 0.224629 9.98858 0.0953744 8.49147C-0.0827252 6.38673 -0.0137775 4.24378 0.322319 2.1566C0.512057 0.985476 1.25875 0.286657 2.41349 0.210612C6.31158 -0.0653656 10.2356 -0.0326593 14.125 0.0960942C14.5358 0.107897 14.9494 0.172409 15.3545 0.245841C17.3538 0.60399 17.4026 2.62657 17.5322 4.32919C17.6615 6.04939 17.6069 7.77842 17.3598 9.48691C17.1616 10.9015 16.7824 12.0877 15.1821 12.2023C13.177 12.352 11.2179 12.4726 9.20711 12.4342C9.2072 12.4251 9.19565 12.4251 9.18992 12.4251ZM7.06709 8.84377C8.57812 7.95718 10.0603 7.08537 11.5627 6.20473C10.0489 5.31814 8.56948 4.44632 7.06709 3.56568V8.84377Z" fill="#ED4008"/>
</svg>
